<?xml version="1.0" encoding="UTF-8"?>
<svg width="133px" height="133px" viewBox="0 0 133 133" version="1.1" xmlns="http://www.w3.org/2000/svg" xmlns:xlink="http://www.w3.org/1999/xlink">
    <!-- Generator: sketchtool 54.1 (76490) - https://sketchapp.com -->
    <title>B2E36957-2841-4E79-97D7-5D2416555B21@1x</title>
    <desc>Created with sketchtool.</desc>
    <g id="Wave-1" stroke="none" stroke-width="1" fill="none" fill-rule="evenodd">
        <g id="Home" transform="translate(-1187.000000, -855.000000)" fill="#F7F7F7" fill-rule="nonzero">
            <g id="ScrollIndicator" transform="translate(1187.000000, 853.000000)">
                <g id="ScrollCircle">
                    <path d="M85.179487,132.241388 C84.6006382,132.429571 84.0667274,132.500973 83.5777389,132.455597 C83.0887503,132.41022 82.6713316,132.252902 82.3254703,131.983638 C81.979609,131.714375 81.732996,131.35309 81.5856239,130.899775 L81.5210072,130.701015 C81.5096709,130.666144 81.5122396,130.632537 81.5287135,130.600193 C81.5451874,130.567848 81.5708591,130.546008 81.6057295,130.534671 L83.0598186,130.061949 C83.094689,130.050613 83.1282961,130.053182 83.1606408,130.069656 C83.1929855,130.086129 83.2148257,130.111801 83.226162,130.146672 L83.2669725,130.272205 C83.3417922,130.502349 83.5220457,130.665442 83.8077384,130.761487 C84.093431,130.857533 84.4315466,130.842072 84.8220953,130.715105 C85.1289549,130.615346 85.3340706,130.475408 85.4374483,130.295288 C85.540826,130.115168 85.5641738,129.937934 85.5074922,129.763582 C85.4621469,129.624101 85.3817171,129.524944 85.2662003,129.466108 C85.1506834,129.407273 85.0100634,129.372023 84.8443359,129.360355 C84.6786084,129.348688 84.4253142,129.340429 84.0844456,129.335577 C84.0357993,129.328259 83.9888542,129.32617 83.9436088,129.329313 C83.8983634,129.332455 83.8560389,129.332721 83.8166339,129.330109 C83.315706,129.331025 82.8700968,129.300466 82.4797928,129.238429 C82.0894889,129.176393 81.72647,129.032234 81.3907252,128.805948 C81.0549805,128.579663 80.8145593,128.243354 80.6694544,127.797013 C80.5288841,127.36462 80.5192141,126.949439 80.640444,126.551458 C80.761674,126.153477 80.9961931,125.801565 81.3440083,125.495712 C81.6918236,125.189859 82.1202788,124.95418 82.6293868,124.78867 C83.1663912,124.614091 83.6810804,124.554721 84.1734699,124.610559 C84.6658594,124.666396 85.0919094,124.832475 85.4516327,125.108799 C85.811356,125.385123 86.0660336,125.753424 86.2156729,126.213713 L86.2632852,126.360168 C86.2746215,126.395039 86.2720528,126.428646 86.2555789,126.460991 C86.239105,126.493335 86.2134333,126.515175 86.1785629,126.526512 L84.7244738,126.999234 C84.6896034,127.01057 84.6559964,127.008001 84.6236517,126.991527 C84.5913069,126.975054 84.5694668,126.949382 84.5581304,126.914511 L84.5343243,126.841284 C84.4549701,126.597191 84.2765893,126.41614 83.9991766,126.298125 C83.721764,126.18011 83.4017363,126.180051 83.039084,126.297949 C82.7670947,126.386372 82.5725262,126.511314 82.4553726,126.672779 C82.338219,126.834244 82.3125179,127.016098 82.3782685,127.218347 C82.4281483,127.371777 82.5183431,127.483181 82.6488556,127.552564 C82.779368,127.621946 82.9616597,127.666783 83.1957359,127.687074 C83.4298121,127.707366 83.7822271,127.718101 84.2529914,127.71928 C84.7955916,127.727949 85.2232852,127.750839 85.5360852,127.787949 C85.8488852,127.825059 86.1714953,127.945728 86.5039253,128.149957 C86.8363553,128.354187 87.0773864,128.686442 87.2270258,129.146731 C87.3743979,129.600047 87.3862921,130.027999 87.2627087,130.4306 C87.1391253,130.833202 86.8987659,131.190868 86.5416232,131.503609 C86.1844804,131.816351 85.7304396,132.062274 85.179487,132.241388 Z M95.0795818,128.454219 C94.55793,128.72266 94.0478517,128.857313 93.5493316,128.858181 C93.0508115,128.85905 92.5967053,128.729853 92.1869993,128.470585 C91.7772933,128.211318 91.4466135,127.837166 91.1949499,127.348117 L90.1077688,125.235438 C89.8594608,124.75291 89.749736,124.27124 89.7785911,123.790414 C89.8074462,123.309588 89.9671105,122.866607 90.2575887,122.461458 C90.5480669,122.05631 90.9541259,121.71952 91.4757776,121.451079 C91.9974294,121.182638 92.5049911,121.043094 92.9984779,121.032445 C93.4919648,121.021795 93.9376823,121.134691 94.335644,121.371136 C94.7336057,121.607581 95.0500248,121.954021 95.2849108,122.410466 C95.3016884,122.44307 95.3036992,122.475024 95.2909435,122.50633 C95.2781878,122.537636 95.2555087,122.561678 95.2229054,122.578456 L93.8793137,123.381205 C93.801066,123.421471 93.7434876,123.405741 93.706577,123.334014 C93.5488678,123.027543 93.3317502,122.829999 93.0552177,122.741375 C92.7786852,122.652752 92.4904483,122.685616 92.1904986,122.83997 C91.8905488,122.994323 91.6971038,123.211393 91.6101579,123.491186 C91.5232119,123.770979 91.5569152,124.060846 91.7112689,124.360796 L92.8538157,126.581065 C93.0081694,126.881015 93.2236092,127.075299 93.5001417,127.163922 C93.7766742,127.252546 94.0649111,127.219682 94.3648608,127.065328 C94.6648106,126.910974 94.8590945,126.695534 94.9477182,126.419002 C95.0363419,126.142469 95.0034774,125.854233 94.8491238,125.554283 C94.8122131,125.482556 94.8328814,125.42656 94.9111291,125.386294 L96.3352528,124.740039 C96.367856,124.723262 96.4006016,124.718782 96.4334904,124.726599 C96.4663792,124.734417 96.4895343,124.751367 96.5029563,124.77745 C96.7411978,125.240415 96.8416951,125.704154 96.8044512,126.168679 C96.7672073,126.633203 96.600832,127.063143 96.3053206,127.458511 C96.0098091,127.853878 95.6012336,128.185778 95.0795818,128.454219 Z M105.299183,122.252616 C105.24021,122.296205 105.179315,122.30018 105.116495,122.26454 L102.333479,120.683053 C102.304249,120.668181 102.277839,120.669463 102.25425,120.686899 L101.67042,121.11843 C101.640934,121.140224 101.637088,121.165864 101.658882,121.195351 L103.371928,123.512979 C103.393723,123.542465 103.401928,123.575156 103.396543,123.611053 C103.391159,123.64695 103.373724,123.675795 103.344237,123.69759 L102.088118,124.626034 C102.058632,124.647829 102.025941,124.656034 101.990044,124.65065 C101.954147,124.645265 101.925302,124.62783 101.903507,124.598344 L97.4835882,118.61851 C97.4617936,118.589023 97.4535886,118.556332 97.4589729,118.520436 C97.4643573,118.484539 97.4817925,118.455694 97.511279,118.433899 L100.138514,116.492011 C100.527735,116.204323 100.928618,116.031122 101.341174,115.972403 C101.75373,115.913685 102.148973,115.970347 102.526915,116.142394 C102.904857,116.31444 103.233309,116.589172 103.512279,116.9666 C103.804327,117.361719 103.959836,117.775678 103.978812,118.20849 C103.997788,118.641302 103.881255,119.051161 103.629211,119.438077 C103.608442,119.471666 103.614852,119.498845 103.648442,119.519614 L106.614145,121.089177 C106.643376,121.104048 106.662349,121.117381 106.671067,121.129176 C106.705939,121.176354 106.690939,121.223917 106.626069,121.271865 L105.299183,122.252616 Z M99.8462229,118.650421 C99.8167364,118.672216 99.8128904,118.697856 99.834685,118.727343 L100.76313,119.983462 C100.784924,120.012948 100.810564,120.016794 100.840051,119.994999 L101.821947,119.269243 C102.040147,119.107964 102.172385,118.916752 102.218665,118.695602 C102.264945,118.474452 102.213984,118.263626 102.065781,118.063118 C101.913219,117.856712 101.723353,117.741717 101.496178,117.718129 C101.269003,117.694541 101.046319,117.763386 100.828119,117.924666 L99.8462229,118.650421 Z M112.655859,116.279434 C112.241189,116.704744 111.791116,116.995665 111.305625,117.152206 C110.820134,117.308746 110.33547,117.325257 109.851617,117.201739 C109.367765,117.078221 108.921066,116.81681 108.511508,116.417499 L106.936294,114.881693 C106.537238,114.49262 106.271159,114.059086 106.138049,113.581077 C106.00494,113.103068 106.010481,112.619421 106.154674,112.13012 C106.298867,111.64082 106.578294,111.183522 106.992963,110.758212 C107.407633,110.332902 107.858986,110.040668 108.347037,109.881502 C108.835088,109.722336 109.319719,109.703232 109.800946,109.824191 C110.282174,109.945149 110.722309,110.200161 111.121365,110.589234 L112.696579,112.125039 C113.106137,112.524351 113.378779,112.964284 113.514514,113.444853 C113.650249,113.925421 113.64474,114.411661 113.497988,114.903587 C113.351236,115.395513 113.070529,115.854124 112.655859,116.279434 Z M111.537457,115.189012 C111.783187,114.936976 111.900175,114.654164 111.888423,114.340566 C111.876672,114.026969 111.734279,113.73707 111.461241,113.470863 L109.830894,111.881304 C109.563106,111.620215 109.271007,111.486491 108.954587,111.480128 C108.638167,111.473764 108.357096,111.596598 108.111366,111.848634 C107.870755,112.095419 107.757639,112.376886 107.772016,112.693043 C107.786393,113.0092 107.927473,113.297819 108.195261,113.558907 L109.825608,115.148466 C110.098646,115.414674 110.392058,115.549677 110.705853,115.553481 C111.019648,115.557285 111.296846,115.435796 111.537457,115.189012 Z M118.122056,110.34811 C118.100912,110.378067 118.072456,110.39613 118.036686,110.402299 C118.000916,110.408469 117.968053,110.400982 117.938096,110.379839 L111.862847,106.092013 C111.83289,106.07087 111.814827,106.042413 111.808658,106.006643 C111.802488,105.970873 111.809975,105.93801 111.831118,105.908053 L112.731815,104.631891 C112.752958,104.601934 112.781415,104.583871 112.817185,104.577702 C112.852955,104.571532 112.885818,104.579019 112.915775,104.600162 L117.777771,108.031691 C117.807728,108.052835 117.833278,108.048428 117.854421,108.018471 L119.877818,105.151601 C119.898961,105.121644 119.927418,105.103581 119.963188,105.097411 C119.998958,105.091241 120.031821,105.098728 120.061778,105.119871 L121.122251,105.868338 C121.152208,105.889481 121.170271,105.917937 121.17644,105.953708 C121.18261,105.989478 121.175123,106.022341 121.15398,106.052298 L118.122056,110.34811 Z M123.96758,101.887194 C123.951313,101.920054 123.925984,101.942292 123.891595,101.953907 C123.857205,101.965522 123.82358,101.963196 123.790719,101.946928 L117.126609,98.6478788 C117.093748,98.6316112 117.071511,98.6062829 117.059896,98.5718931 C117.04828,98.5375033 117.050607,98.5038786 117.066874,98.4710179 L117.75987,97.0711604 C117.776137,97.0382998 117.801466,97.0160622 117.835855,97.004447 C117.870245,96.9928319 117.90387,96.995158 117.936731,97.0114256 L123.269991,99.6516414 C123.302851,99.6679089 123.327415,99.6596125 123.343683,99.6267519 L124.900483,96.4820015 C124.91675,96.4491408 124.942079,96.4269033 124.976468,96.4152881 C125.010858,96.4036729 125.044483,96.4059991 125.077343,96.4222667 L126.240605,96.9981363 C126.273466,97.0144039 126.295704,97.0397322 126.307319,97.074122 C126.318934,97.1085118 126.316608,97.1421365 126.30034,97.1749971 L123.96758,101.887194 Z M129.126331,85.3174026 C129.064269,85.5815444 128.942571,85.8109544 128.761233,86.0056396 C128.579895,86.2003248 128.361695,86.3354978 128.106625,86.4111628 C127.851556,86.4868278 127.595523,86.494468 127.338521,86.4340836 C127.074379,86.3720218 126.848538,86.2511625 126.660992,86.0715021 C126.473446,85.8918417 126.341842,85.67448 126.266177,85.4194103 C126.190512,85.1643407 126.183711,84.9047389 126.245772,84.6405972 C126.306157,84.3835944 126.426177,84.1613233 126.605838,83.973777 C126.785498,83.7862308 126.999291,83.6537885 127.247221,83.5764462 C127.495152,83.4991038 127.751184,83.4914636 128.015326,83.5535254 C128.272329,83.6139098 128.496385,83.7343498 128.6875,83.9148489 C128.878616,84.095348 129.014628,84.3099789 129.09554,84.5587483 C129.176451,84.8075176 129.186715,85.0603999 129.126331,85.3174026 Z M132.875042,70.626522 C132.873596,71.23519 132.775173,71.7647858 132.579768,72.2153252 C132.384363,72.6658646 132.104873,73.0135317 131.741288,73.2583368 C131.377704,73.5031419 130.957584,73.6249766 130.480917,73.6238445 L130.271917,73.6233481 C130.235251,73.623261 130.204115,73.6103538 130.178509,73.5846262 C130.152903,73.5588985 130.140144,73.5277017 130.140231,73.491035 L130.143862,71.9620393 C130.14395,71.9253726 130.156857,71.8942368 130.182584,71.868631 C130.208312,71.8430252 130.239509,71.8302661 130.276176,71.8303532 L130.408175,71.8306667 C130.650176,71.8312414 130.861294,71.7107437 131.041536,71.4691699 C131.221777,71.227596 131.312385,70.9014802 131.31336,70.4908127 C131.314126,70.1681453 131.245026,69.9296496 131.106059,69.7753183 C130.967091,69.6209871 130.805942,69.5436049 130.622609,69.5431695 C130.475942,69.5428212 130.356668,69.5883709 130.264783,69.67982 C130.172898,69.7712692 130.095608,69.8939181 130.032908,70.0477704 C129.970209,70.2016227 129.883478,70.4397483 129.772711,70.7621544 C129.750607,70.8061023 129.734002,70.8500625 129.722898,70.8940365 C129.711793,70.9380105 129.698864,70.9783128 129.68411,71.0149447 C129.528978,71.4912467 129.361163,71.9051785 129.18066,72.2567526 C129.000157,72.6083266 128.750113,72.9083973 128.43052,73.1569735 C128.110927,73.4055498 127.716469,73.5292788 127.247135,73.5281641 C126.792467,73.5270843 126.394922,73.4069743 126.054487,73.1678306 C125.714052,72.9286869 125.452677,72.5962352 125.270354,72.1704655 C125.08803,71.7446958 124.997505,71.2641509 124.998777,70.7288164 C125.000118,70.1641485 125.103989,69.6565656 125.310394,69.2060522 C125.516799,68.7555389 125.807302,68.4023981 126.181913,68.1466191 C126.556523,67.8908401 126.985822,67.7635272 127.469823,67.7646767 L127.623823,67.7650425 C127.66049,67.7651296 127.691626,67.7780367 127.717231,67.8037644 C127.742837,67.8294921 127.755596,67.8606888 127.755509,67.8973556 L127.751878,69.4263513 C127.751791,69.463018 127.738884,69.4941538 127.713156,69.5197596 C127.687428,69.5453653 127.656231,69.5581245 127.619565,69.5580374 L127.542565,69.5578545 C127.285898,69.557245 127.058297,69.6703703 126.859757,69.8972339 C126.661217,70.1240974 126.561495,70.4281918 126.56059,70.8095259 C126.55991,71.0955265 126.618045,71.3193297 126.734995,71.480942 C126.851946,71.6425544 127.016752,71.7236119 127.229419,71.7241169 C127.390753,71.7245001 127.524706,71.6734853 127.631284,71.5710709 C127.737861,71.4686566 127.837239,71.3093937 127.929419,71.0932776 C128.0216,70.8771615 128.141553,70.5456155 128.289283,70.0986295 C128.466502,69.585713 128.621449,69.1864172 128.754129,68.9007301 C128.886809,68.615043 129.101946,68.3460559 129.399547,68.0937607 C129.697149,67.8414655 130.087944,67.7158945 130.571945,67.717044 C131.048613,67.7181761 131.458987,67.8401498 131.80308,68.0829689 C132.147172,68.325788 132.412197,68.6655817 132.598161,69.1023601 C132.784125,69.5391385 132.876418,70.0471874 132.875042,70.626522 Z M132.368916,60.0448145 C132.460263,60.6243289 132.428197,61.1509056 132.272717,61.6245604 C132.117237,62.0982152 131.852174,62.4889151 131.477522,62.7966718 C131.10287,63.1044285 130.643903,63.301123 130.100609,63.3867612 L127.753587,63.7567164 C127.217537,63.8412128 126.725752,63.7943829 126.278218,63.6162254 C125.830684,63.4380679 125.460101,63.1475632 125.166458,62.7447026 C124.872815,62.341842 124.680322,61.8506619 124.588975,61.2711475 C124.497627,60.6916332 124.52426,60.1659129 124.668875,59.6939708 C124.813489,59.2220287 125.060442,58.8341834 125.40974,58.5304232 C125.759039,58.226663 126.187219,58.0348212 126.694294,57.9548922 C126.730514,57.949183 126.761487,57.9572924 126.787216,57.9792206 C126.812944,58.0011488 126.828662,58.0302223 126.834372,58.066442 L127.175375,59.5939764 C127.189078,59.6809036 127.156088,59.7306465 127.076404,59.7432068 C126.73594,59.7968734 126.480282,59.9411053 126.309424,60.175907 C126.138565,60.4107086 126.079399,60.6947155 126.131924,61.0279362 C126.184449,61.361157 126.329921,61.6129073 126.568344,61.7831948 C126.806768,61.9534823 127.092586,62.0123628 127.425806,61.959838 L129.892352,61.5710425 C130.225573,61.5185178 130.477609,61.3748567 130.648467,61.1400551 C130.819325,60.9052535 130.878491,60.6212466 130.825967,60.2880258 C130.773442,59.9548051 130.629781,59.7027693 130.394979,59.5319109 C130.160178,59.3610524 129.876171,59.3018865 129.54295,59.3544113 C129.463267,59.3669715 129.416575,59.3297887 129.402873,59.2428615 L129.235722,57.687923 C129.230013,57.6517034 129.236026,57.6192044 129.253761,57.5904251 C129.271497,57.5616458 129.294852,57.5449727 129.323828,57.5404054 C129.838146,57.4593345 130.310011,57.5093044 130.739435,57.6903165 C131.168859,57.8713287 131.524954,58.164117 131.807731,58.5686904 C132.090509,58.9732637 132.277568,59.4653002 132.368916,60.0448145 Z M129.679213,48.3876692 C129.702182,48.457313 129.686921,48.5163988 129.633429,48.5649285 L127.261208,50.7140787 C127.237944,50.7371951 127.230906,50.7626816 127.240094,50.7905391 L127.467487,51.4800089 C127.478971,51.5148308 127.502124,51.5264992 127.536946,51.5150147 L130.273932,50.6123342 C130.308754,50.6008497 130.342371,50.6032754 130.374786,50.6196116 C130.4072,50.6359477 130.42915,50.6615263 130.440634,50.6963482 L130.929873,52.1797528 C130.941358,52.2145747 130.938932,52.2481923 130.922596,52.2806068 C130.90626,52.3130213 130.880681,52.3349705 130.845859,52.3464551 L123.784018,54.6755086 C123.749196,54.6869931 123.715578,54.6845673 123.683164,54.6682312 C123.650749,54.6518951 123.6288,54.6263164 123.617315,54.5914946 L122.594048,51.4888808 C122.442452,51.029232 122.403251,50.5942964 122.476443,50.1840611 C122.549636,49.7738258 122.727016,49.4161049 123.008587,49.1108876 C123.290159,48.8056703 123.653799,48.579564 124.099519,48.4325618 C124.566132,48.278669 125.007959,48.2603608 125.425011,48.3776366 C125.842063,48.4949125 126.194951,48.73373 126.483685,49.0940961 C126.509098,49.1243242 126.536919,49.1267316 126.567147,49.1013183 L128.985152,46.7749088 C129.008415,46.7517924 129.027011,46.7379375 129.04094,46.7333437 C129.096655,46.7149684 129.137145,46.7440844 129.162411,46.8206926 L129.679213,48.3876692 Z M124.55291,52.4412602 C124.564395,52.4760821 124.587547,52.4877506 124.622369,52.4762661 L126.105774,51.987027 C126.140596,51.9755425 126.152264,51.9523896 126.14078,51.9175677 L125.758346,50.758005 C125.673361,50.5003231 125.533071,50.3149379 125.337472,50.2018439 C125.141874,50.0887499 124.925683,50.0712506 124.688894,50.1493455 C124.445141,50.2297373 124.276556,50.3741389 124.183133,50.5825546 C124.08971,50.7909703 124.085491,51.0240156 124.170477,51.2816975 L124.55291,52.4412602 Z M126.300325,39.5377441 C126.575724,40.0640474 126.712385,40.5822412 126.710313,41.0923413 C126.708241,41.6024414 126.573328,42.0682427 126.305571,42.4897591 C126.037814,42.9112755 125.650536,43.254628 125.143725,43.5198267 L123.194464,44.5398166 C122.700648,44.7982153 122.205894,44.9164037 121.710187,44.8943854 C121.21448,44.872367 120.756498,44.7168096 120.336228,44.4277084 C119.915958,44.1386073 119.568129,43.7309112 119.29273,43.2046079 C119.017331,42.6783047 118.87982,42.1584864 118.880192,41.6451376 C118.880564,41.1317887 119.013003,40.6652131 119.277511,40.2453966 C119.54202,39.8255802 119.921176,39.4864777 120.414991,39.2280789 L122.364253,38.208089 C122.871063,37.9428903 123.373939,37.8204519 123.872895,37.8407703 C124.371851,37.8610887 124.832308,38.0174205 125.254278,38.3097705 C125.676248,38.6021204 126.024927,39.0114409 126.300325,39.5377441 Z M124.91635,40.261937 C124.75315,39.9500536 124.520692,39.7509754 124.218968,39.6646966 C123.917244,39.5784177 123.59745,39.6236772 123.259576,39.8004763 L121.24209,40.8561659 C120.910714,41.029565 120.692842,41.26565 120.588468,41.5644278 C120.484094,41.8632056 120.513507,42.1685317 120.676706,42.4804151 C120.836505,42.7858009 121.068888,42.9807803 121.373861,43.0653592 C121.678834,43.1499381 121.997003,43.1055286 122.32838,42.9321294 L124.345865,41.8764398 C124.683739,41.6996407 124.903235,41.4627058 125.00436,41.1656279 C125.105485,40.8685501 125.076149,40.5673228 124.91635,40.261937 Z M122.364467,32.4995438 C122.386383,32.5289403 122.394722,32.5615974 122.389486,32.5975161 C122.384249,32.6334347 122.366933,32.6623515 122.337536,32.6842673 L116.375951,37.1287687 C116.346554,37.1506845 116.313897,37.159024 116.277978,37.1537875 C116.24206,37.148551 116.213143,37.1312348 116.191227,37.1018382 L115.257619,35.8495525 C115.235703,35.820156 115.227364,35.7874989 115.2326,35.7515803 C115.237837,35.7156616 115.255153,35.6867449 115.284549,35.6648291 L120.055582,32.1079129 C120.084978,32.0859972 120.088719,32.0603414 120.066803,32.0309448 L117.969471,29.2177114 C117.947556,29.1883149 117.939216,29.1556578 117.944453,29.1197392 C117.949689,29.0838205 117.967005,29.0549038 117.996402,29.032988 L119.037034,28.2571726 C119.06643,28.2352568 119.099087,28.2269173 119.135006,28.2321538 C119.170925,28.2373903 119.199841,28.2547066 119.221757,28.2841031 L122.364467,32.4995438 Z M116.12488,24.3036669 C116.151048,24.3293517 116.1643,24.360342 116.164638,24.3966388 C116.164976,24.4329355 116.152303,24.4641673 116.126619,24.490335 L110.917772,29.7971242 C110.892087,29.8232919 110.861097,29.8365446 110.8248,29.8368827 C110.788503,29.8372208 110.757271,29.8245476 110.731104,29.7988628 L109.616364,28.7046968 C109.590196,28.679012 109.576944,28.6480217 109.576605,28.611725 C109.576267,28.5754282 109.588941,28.5441964 109.614625,28.5180287 L113.783244,24.2710273 C113.808929,24.2448596 113.808687,24.2189337 113.782519,24.1932489 L111.27828,21.735228 C111.252112,21.7095433 111.23886,21.678553 111.238522,21.6422562 C111.238184,21.6059595 111.250857,21.5747277 111.276541,21.54856 L112.185778,20.6222269 C112.211463,20.5960592 112.242453,20.5828065 112.27875,20.5824684 C112.315047,20.5821304 112.346278,20.5948035 112.372446,20.6204883 L116.12488,24.3036669 Z M101.997866,14.2438132 C102.229219,14.385583 102.408889,14.5730878 102.536882,14.8063334 C102.664874,15.039579 102.724797,15.2891636 102.716651,15.5550947 C102.708505,15.8210258 102.635464,16.0665374 102.497526,16.2916369 C102.355756,16.5229891 102.170167,16.6995327 101.940753,16.8212729 C101.711339,16.9430131 101.46367,16.9998093 101.197739,16.9916632 C100.931808,16.9835171 100.68317,16.9085603 100.451818,16.7667905 C100.226718,16.6288524 100.053301,16.4451791 99.9315608,16.2157651 C99.8098205,15.9863511 99.7511086,15.7418087 99.7554231,15.4821303 C99.7597376,15.222452 99.8327786,14.9769404 99.9745483,14.7455882 C100.112486,14.5204887 100.297118,14.3455083 100.528447,14.2206417 C100.759777,14.0957751 101.006235,14.0339368 101.26783,14.0351249 C101.529424,14.036313 101.772767,14.1058751 101.997866,14.2438132 Z M89.2013177,6.07626213 C89.7792133,6.26735241 90.2517485,6.52594358 90.6189375,6.8520434 C90.9861265,7.17814322 91.2293592,7.55207521 91.3486427,7.97385059 C91.4679262,8.39562597 91.4527437,8.83279152 91.3030947,9.28536036 L91.2374797,9.4837934 C91.2259682,9.51860639 91.2039993,9.54416803 91.1715722,9.5604791 C91.1391451,9.57679017 91.1055255,9.57918993 91.0707125,9.56767847 L89.6190182,9.08765289 C89.5842052,9.07614143 89.5586436,9.05417247 89.5423325,9.02174536 C89.5260214,8.98931824 89.5236217,8.95569869 89.5351331,8.92088571 L89.5765742,8.79555958 C89.6525498,8.56579386 89.6038586,8.32763492 89.430499,8.08107563 C89.2571395,7.83451634 88.9755112,7.64677532 88.5856057,7.51784694 C88.2792515,7.41654607 88.031099,7.40786638 87.8411409,7.49180759 C87.6511828,7.5757488 87.5274269,7.70474994 87.4698696,7.87881488 C87.4238237,8.01806683 87.4299276,8.14559646 87.4881815,8.26140758 C87.5464353,8.37721871 87.6388833,8.48888771 87.7655284,8.59641793 C87.8921734,8.70394815 88.0914029,8.86058083 88.3632228,9.06632066 C88.3980916,9.10102221 88.4346864,9.13050136 88.4730086,9.15475901 C88.5113307,9.17901667 88.5455955,9.20386345 88.5758039,9.2293001 C88.9800246,9.52516366 89.3210291,9.81363796 89.5988276,10.0947316 C89.8766261,10.3758253 90.0838116,10.7069427 90.2203902,11.0880936 C90.3569688,11.4692445 90.3515848,11.8826169 90.2042381,12.3282232 C90.0614959,12.7599042 89.8234579,13.1002078 89.4901169,13.3491441 C89.1567759,13.5980803 88.7594173,13.7428123 88.2980294,13.7833443 C87.8366414,13.8238763 87.3518199,13.7601095 86.8435503,13.5920422 C86.3074302,13.4147657 85.8575092,13.1578594 85.4937736,12.8213157 C85.1300381,12.484772 84.885037,12.0986695 84.758763,11.6629968 C84.632489,11.2273241 84.6453274,10.7797287 84.7972787,10.3201973 L84.8456266,10.1739835 C84.8571381,10.1391705 84.8791071,10.1136088 84.9115342,10.0972978 C84.9439613,10.0809867 84.9775808,10.0785869 85.0123938,10.0900984 L86.4640882,10.570124 C86.4989012,10.5816354 86.5244628,10.6036044 86.5407739,10.6360315 C86.5570849,10.6684586 86.5594847,10.7020782 86.5479732,10.7368912 L86.5237993,10.8099981 C86.443219,11.053689 86.4797677,11.3052113 86.6334463,11.5645725 C86.787125,11.8239337 87.0449879,12.013471 87.407043,12.1331903 C87.6785843,12.2229797 87.9093584,12.2374986 88.0993722,12.1767475 C88.2893861,12.1159963 88.4177743,11.9846651 88.4845408,11.7827497 C88.5351912,11.6295726 88.52847,11.4863913 88.4643768,11.3532015 C88.4002837,11.2200118 88.27993,11.075944 88.103312,10.9209939 C87.926694,10.7660438 87.6490529,10.5487261 87.2703803,10.2690343 C86.8382535,9.94077152 86.507145,9.6690861 86.277045,9.45396994 C86.046945,9.23885378 85.8584144,8.95059288 85.7114476,8.58917858 C85.5644808,8.22776429 85.5669731,7.81729758 85.7189244,7.35776614 C85.8685734,6.9051973 86.112381,6.55328494 86.4503544,6.30201851 C86.7883279,6.05075207 87.1938,5.90484113 87.6667831,5.86428129 C88.1397661,5.82372145 88.6512725,5.89438103 89.2013177,6.07626213 Z M78.9856132,3.26976256 C79.5649469,3.36224851 80.0557478,3.55570574 80.4580307,3.85014006 C80.8603135,4.14457438 81.1498004,4.51753783 81.3265002,4.9690416 C81.5032,5.42054537 81.5481964,5.91785249 81.4614908,6.46097786 L81.0869246,8.80726773 C81.0013751,9.34315142 80.8046462,9.79629945 80.496732,10.1667254 C80.1888178,10.5371514 79.7978868,10.7996351 79.3239274,10.9541844 C78.849968,11.1087337 78.3233293,11.1397649 77.7439956,11.047279 C77.1646618,10.954793 76.6729939,10.766767 76.2689769,10.4831952 C75.86496,10.1996234 75.5725829,9.84476381 75.3918369,9.41860589 C75.2110908,8.99244797 75.1611812,8.5259175 75.2421064,8.01900049 C75.2478868,7.98279213 75.2651837,7.95584898 75.2939978,7.93817022 C75.3228119,7.92049147 75.3553226,7.91454236 75.391531,7.92032274 L76.9496062,8.06880326 C77.0365063,8.08267616 77.0735974,8.12944109 77.0608805,8.20909948 C77.006545,8.54945805 77.0645748,8.83720146 77.2349715,9.07233834 C77.4053682,9.30747523 77.6571213,9.45163122 77.9902382,9.50481064 C78.323355,9.55799006 78.6077667,9.4975719 78.8434816,9.32355434 C79.0791965,9.14953678 79.2236415,8.89597336 79.276821,8.56285646 L79.6704623,6.09707961 C79.7236417,5.76396272 79.665034,5.47984009 79.4946372,5.2447032 C79.3242405,5.00956632 79.0724875,4.86541032 78.7393706,4.8122309 C78.4062537,4.75905148 78.1221311,4.81765926 77.8869942,4.98805598 C77.6518573,5.1584527 77.5077013,5.41020574 77.4545219,5.74332263 C77.4418051,5.82298102 77.3919974,5.85587327 77.3050973,5.84200038 L75.7747677,5.5197206 C75.7385593,5.51394023 75.7095168,5.49816464 75.6876392,5.47239337 C75.6657615,5.44662209 75.657135,5.41925352 75.6617593,5.39028684 C75.7438406,4.87612815 75.9373903,4.44289442 76.2424143,4.09057265 C76.5474383,3.73825087 76.9360572,3.49025029 77.4082825,3.34656348 C77.8805078,3.20287667 78.4062795,3.17727662 78.9856132,3.26976256 Z M67.084435,2.21238175 C67.1577686,2.21225112 67.2091601,2.24515931 67.2386111,2.31110728 L68.541821,5.23479061 C68.5565399,5.26409792 68.5785658,5.27872523 68.6078992,5.27867298 L69.3338981,5.27737981 C69.3705649,5.2773145 69.3888653,5.25894872 69.3888,5.22228193 L69.3836665,2.3402865 C69.3836012,2.30361971 69.3963789,2.27243054 69.4219999,2.24671807 C69.447621,2.2210056 69.4787644,2.2081169 69.5154312,2.20805159 L71.0774287,2.20526931 C71.1140955,2.205204 71.1452847,2.21798167 71.1709971,2.24360271 C71.1967096,2.26922374 71.2095983,2.30036719 71.2096636,2.33703398 L71.2229088,9.77302219 C71.2229741,9.80968898 71.2101965,9.84087814 71.1845754,9.86659062 C71.1589544,9.89230309 71.1278109,9.90519179 71.0911441,9.9052571 L67.8241493,9.91107636 C67.3401477,9.91193848 66.9146429,9.81369723 66.5476223,9.61634968 C66.1806017,9.41900212 65.8959387,9.13901153 65.6936248,8.77636951 C65.4913108,8.41372748 65.3897374,7.99774524 65.3889014,7.52841031 C65.3880262,7.0370753 65.5082672,6.61153137 65.749628,6.25176575 C65.9909888,5.89200013 66.3278545,5.63106895 66.7602352,5.46896439 C66.7968759,5.45423236 66.8078301,5.4285464 66.793098,5.39190573 L65.3357121,2.36949687 C65.3209932,2.34018956 65.3136207,2.31820287 65.3135946,2.30353616 C65.3134901,2.24486929 65.3537707,2.21546446 65.4344377,2.21532077 L67.084435,2.21238175 Z M69.3393646,8.34637494 C69.3760314,8.34630963 69.3943319,8.32794385 69.3942666,8.29127706 L69.3914843,6.72927954 C69.391419,6.69261275 69.3730532,6.67431228 69.3363864,6.67437759 L68.1153884,6.67655247 C67.8440541,6.67703578 67.6241906,6.75259344 67.4557911,6.90322772 C67.2873916,7.053862 67.2034152,7.25384323 67.2038593,7.50317742 C67.2043165,7.75984496 67.2890146,7.9650257 67.4579562,8.11872579 C67.6268977,8.27242588 67.8470323,8.34903312 68.1183666,8.34854982 L69.3393646,8.34637494 Z M57.629923,2.6570653 C58.2160505,2.56065889 58.7509582,2.59344375 59.2346625,2.75542087 C59.7183667,2.91739798 60.1183382,3.19161514 60.434589,3.57808055 C60.7508397,3.96454597 60.9553799,4.43998104 61.0482157,5.00440002 L61.4052747,7.1752314 C61.4957301,7.7251781 61.4527575,8.23203441 61.2763555,8.69581553 C61.0999536,9.15959665 60.8085865,9.54566744 60.4022454,9.85403948 C59.9959043,10.1624115 59.4996775,10.3647977 58.9135501,10.4612041 C58.3274227,10.5576105 57.7907059,10.5251232 57.3033836,10.3637412 C56.8160613,10.2023592 56.4145783,9.93024858 56.0989227,9.54740123 C55.7832671,9.16455388 55.5802146,8.69816385 55.4897592,8.14821715 L55.1327002,5.97738578 C55.0398644,5.41296679 55.0813493,4.89706545 55.2571561,4.42966625 C55.432963,3.96226706 55.7258416,3.57408972 56.1358007,3.26512258 C56.5457598,2.95615544 57.0437956,2.75347171 57.629923,2.6570653 Z M57.8834349,4.19835558 C57.5361002,4.2554853 57.2741518,4.41376346 57.0975819,4.6731948 C56.921012,4.93262614 56.8636732,5.25047671 56.9255638,5.62675603 L57.2951198,7.8735665 C57.3558202,8.24260968 57.5116468,8.52354079 57.7626043,8.71636825 C58.0135618,8.9091957 58.3127035,8.97704355 58.6600382,8.91991383 C59.0001369,8.86397431 59.2581697,8.70448223 59.4341445,8.44143282 C59.6101192,8.17838341 59.6677556,7.86234186 59.6070552,7.49329868 L59.2374992,5.2464882 C59.1756087,4.87020888 59.0194845,4.58746877 58.7691221,4.39825938 C58.5187596,4.20904999 58.2235335,4.14241606 57.8834349,4.19835558 Z M49.6930828,4.19267325 C49.7278555,4.18104076 49.7614832,4.18332357 49.7939669,4.19952174 C49.8264505,4.21571992 49.8485083,4.24120499 49.8601407,4.27597772 L52.2191975,11.3278532 C52.23083,11.3626259 52.2285472,11.3962536 52.212349,11.4287372 C52.1961509,11.4612209 52.1706658,11.4832786 52.1358931,11.4949111 L50.6545819,11.9904526 C50.6198092,12.0020851 50.5861815,11.9998023 50.5536979,11.9836041 C50.5212142,11.967406 50.4991565,11.9419209 50.487524,11.9071482 L48.5995806,6.26356147 C48.5879481,6.22878873 48.5647459,6.21721878 48.5299731,6.22885127 L45.202239,7.34207481 C45.1674663,7.3537073 45.1338386,7.35142449 45.1013549,7.33522632 C45.0688713,7.31902815 45.0468135,7.29354308 45.035181,7.25877034 L44.623393,6.02782167 C44.6117605,5.99304894 44.6140433,5.95942125 44.6302415,5.92693759 C44.6464397,5.89445393 44.6719248,5.87239619 44.7066975,5.8607637 L49.6930828,4.19267325 Z M39.9730073,7.55469879 C40.005553,7.53780992 40.0391275,7.53484544 40.0737317,7.54580524 C40.1083359,7.55676504 40.1340821,7.57851748 40.1509709,7.61106321 L43.5760152,14.2113032 C43.5929041,14.2438489 43.5958685,14.2774234 43.5849087,14.3120276 C43.5739489,14.3466318 43.5521965,14.3723779 43.5196508,14.3892668 L42.1332098,15.1087288 C42.1006641,15.1256176 42.0670896,15.1285821 42.0324854,15.1176223 C41.9978812,15.1066625 41.9721351,15.0849101 41.9552462,15.0523644 L39.2141975,9.77021963 C39.1973086,9.73767391 39.1725917,9.7298456 39.140046,9.74673446 L36.0254357,11.3629906 C35.99289,11.3798794 35.9593155,11.3828439 35.9247113,11.3718841 C35.8901071,11.3609243 35.8643609,11.3391719 35.847472,11.3066261 L35.2496093,10.1545132 C35.2327204,10.1219675 35.2297559,10.088393 35.2407157,10.0537888 C35.2516756,10.0191846 35.273428,9.99343847 35.3059737,9.97654961 L39.9730073,7.55469879 Z M26.0192833,17.8593827 C26.225823,17.6834172 26.4598107,17.5707713 26.7212535,17.5214417 C26.9826962,17.4721121 27.2385573,17.4925635 27.4888445,17.5827966 C27.7391318,17.6730297 27.949877,17.8186228 28.1210867,18.0195804 C28.2970521,18.2261202 28.4073201,18.4573169 28.4518939,18.7131774 C28.4964677,18.969038 28.4736384,19.2221081 28.3834054,19.4723953 C28.2931723,19.7226826 28.1447881,19.9358057 27.9382483,20.1117712 C27.7372907,20.2829808 27.5088851,20.3908709 27.2530245,20.4354447 C26.9971639,20.4800185 26.7464717,20.4599803 26.5009403,20.3753294 C26.2554089,20.2906784 26.0446636,20.1450853 25.8686982,19.9385455 C25.6974885,19.7375879 25.5884095,19.5077867 25.5414578,19.2491351 C25.494506,18.9904834 25.5121664,18.7370002 25.5944394,18.4886777 C25.6767125,18.2403552 25.8183256,18.0305923 26.0192833,17.8593827 Z M14.2768294,27.4753487 C14.6389858,26.9861437 15.0323265,26.6181192 15.4568633,26.3712642 C15.8814001,26.1244093 16.3126252,26.0102508 16.7505516,26.0287854 C17.1884779,26.0473201 17.5989911,26.1983934 17.9821035,26.4820098 L18.1500827,26.6063641 C18.1795529,26.6281808 18.1969664,26.6570391 18.2023239,26.6929398 C18.2076814,26.7288406 18.1994519,26.7615256 18.1776353,26.7909958 L17.2678854,28.0198962 C17.2460688,28.0493664 17.2172105,28.06678 17.1813097,28.0721374 C17.1454089,28.0774949 17.1127239,28.0692654 17.0832538,28.0474488 L16.9771616,27.9689092 C16.7826584,27.8249193 16.5412136,27.7967256 16.2528198,27.8843272 C15.964426,27.9719288 15.6980598,28.1807595 15.4537133,28.5108256 C15.2617268,28.7701632 15.1759132,29.0031675 15.19627,29.2098455 C15.2166267,29.4165236 15.3004793,29.5744018 15.4478302,29.6834851 C15.5657109,29.7707517 15.688758,29.8048176 15.8169751,29.7856837 C15.9451921,29.7665499 16.0801633,29.7136406 16.2218925,29.6269541 C16.3636218,29.5402677 16.5746818,29.3999827 16.8550788,29.2060951 C16.8989409,29.1838209 16.9383819,29.1582745 16.9734029,29.1294553 C17.008424,29.1006361 17.0427363,29.0758551 17.0763411,29.0551115 C17.4837323,28.7636291 17.8643441,28.5298853 18.2181878,28.3538732 C18.5720316,28.177861 18.9513197,28.0845602 19.3560635,28.0739678 C19.7608073,28.0633754 20.1517825,28.1977038 20.5290008,28.476957 C20.8944311,28.7474834 21.1432747,29.0799672 21.2755391,29.4744182 C21.4078036,29.8688693 21.4210745,30.2915571 21.3153522,30.7424945 C21.20963,31.1934319 20.9975105,31.6340263 20.6789874,32.0642909 C20.3430109,32.5181317 19.9583396,32.8652019 19.5249618,33.1055119 C19.0915839,33.3458219 18.6482455,33.4578559 18.194933,33.4416173 C17.7416206,33.4253788 17.3204675,33.2732718 16.9314611,32.985292 L16.807687,32.8936626 C16.7782168,32.8718459 16.7608033,32.8429876 16.7554458,32.8070869 C16.7500883,32.7711861 16.7583178,32.7385011 16.7801344,32.7090309 L17.6898842,31.4801305 C17.7117009,31.4506603 17.7405592,31.4332467 17.77646,31.4278892 C17.8123607,31.4225318 17.8450457,31.4307612 17.8745159,31.4525779 L17.936403,31.4983926 C18.1426943,31.6511092 18.3930373,31.6950142 18.6874395,31.630109 C18.9818417,31.5652038 19.2424855,31.379509 19.4693787,31.0730191 C19.6395485,30.8431517 19.7254765,30.6284802 19.7271652,30.4289981 C19.7288539,30.229516 19.644236,30.0665091 19.4733089,29.9399726 C19.3436401,29.8439793 19.2055327,29.8056074 19.0589826,29.8248556 C18.9124324,29.8441038 18.7379631,29.9133931 18.5355694,30.0327255 C18.3331757,30.152058 18.0399613,30.3478561 17.6559175,30.6201257 C17.2090275,30.9279883 16.8474566,31.1575799 16.5711941,31.3089074 C16.2949316,31.4602348 15.9621836,31.5492119 15.5729402,31.5758413 C15.1836969,31.6024707 14.7945778,31.4717974 14.4055714,31.1838176 C14.0224591,30.9002011 13.7643919,30.5586082 13.631362,30.1590284 C13.4983322,29.7594487 13.4864776,29.3286853 13.5957979,28.8667252 C13.7051181,28.4047651 13.9321263,27.9409776 14.2768294,27.4753487 Z M8.41069162,36.3053848 C8.68012248,35.7842436 9.01768252,35.3788247 9.42338185,35.0891161 C9.82908119,34.7994074 10.2739928,34.6414263 10.7581302,34.6151678 C11.2422675,34.5889094 11.7286139,34.7020742 12.2171838,34.9546657 L14.3277954,36.0458552 C14.8098511,36.2950788 15.1784893,36.6239423 15.4337212,37.0324558 C15.688953,37.4409692 15.8156596,37.8944779 15.8138448,38.3929955 C15.81203,38.891513 15.6764091,39.4013348 15.4069783,39.9224761 C15.1375474,40.4436174 14.804873,40.8515621 14.4089451,41.1463226 C14.0130171,41.441083 13.5843909,41.6074838 13.1230535,41.6455298 C12.6617161,41.6835758 12.203055,41.5847243 11.7470563,41.3489723 C11.714485,41.3321329 11.694322,41.3072617 11.6865668,41.2743581 C11.6788117,41.2414546 11.6833537,41.2087176 11.7001931,41.1761463 L12.3296071,39.7431483 C12.3700217,39.6649771 12.4260566,39.6444152 12.4977136,39.681462 C12.8038841,39.8397526 13.0953151,39.8748481 13.3720153,39.7867494 C13.6487156,39.6986508 13.8645238,39.5047762 14.0194466,39.20512 C14.1743693,38.9054638 14.2061523,38.6164479 14.1147965,38.3380637 C14.0234408,38.0596795 13.8279377,37.8430293 13.5282815,37.6881065 L11.310185,36.5413472 C11.0105288,36.3864244 10.7223548,36.3530129 10.4456546,36.4411115 C10.1689543,36.5292102 9.95314608,36.7230847 9.79822333,37.0227409 C9.64330058,37.3223972 9.60988903,37.6105711 9.69798768,37.8872713 C9.78608632,38.1639716 9.97996085,38.3797798 10.2796171,38.5347026 C10.351274,38.5717493 10.3668949,38.6293574 10.3264803,38.7075286 L9.54072476,40.0596977 C9.52388533,40.092269 9.49980078,40.1149025 9.46847038,40.1275988 C9.43713998,40.140295 9.40844668,40.1399074 9.38238962,40.1264359 C8.91987674,39.887316 8.56915246,39.567714 8.33020628,39.1676202 C8.09126009,38.7675265 7.97758182,38.3207534 7.98916807,37.8272877 C8.00075431,37.333822 8.14126076,36.8265261 8.41069162,36.3053848 Z M3.6823411,47.2828873 C3.70506767,47.213164 3.75235104,47.1745852 3.82419261,47.1671498 L7.00839552,46.8398399 C7.04083014,46.8349858 7.06159246,46.8186144 7.07068309,46.7907251 L7.29567504,46.1004682 C7.30703832,46.0656065 7.29528933,46.0424944 7.26042769,46.0311311 L4.52031687,45.1379813 C4.48545523,45.126618 4.45980038,45.104758 4.44335153,45.0724005 C4.42690269,45.0400431 4.42435995,45.006434 4.43572324,44.9715724 L4.91979683,43.4864742 C4.93116011,43.4516125 4.95302015,43.4259577 4.9853776,43.4095088 C5.01773504,43.39306 5.05134408,43.3905172 5.08620571,43.4018805 L12.15611,45.7063435 C12.1909716,45.7177068 12.2166265,45.7395669 12.2330753,45.7719243 C12.2495242,45.8042818 12.2520669,45.8378908 12.2407036,45.8727524 L11.2282398,48.9789086 C11.0782444,49.4390822 10.8523073,49.8127907 10.5504216,50.1000453 C10.2485359,50.3872999 9.89378424,50.5705456 9.48615598,50.6497881 C9.07852771,50.7290306 8.65160552,50.6959273 8.20537659,50.5504772 C7.73823068,50.3982091 7.37134006,50.1513553 7.10469373,49.8099083 C6.83804739,49.4684613 6.69507417,49.067061 6.67576975,48.6056952 C6.67318839,48.5662883 6.65219454,48.5478757 6.61278759,48.5504571 L3.28673317,48.9935045 C3.25429855,48.9983585 3.23110926,48.9985129 3.2171646,48.9939676 C3.16138599,48.9757863 3.14599653,48.9283486 3.17099576,48.851653 L3.6823411,47.2828873 Z M10.2135793,47.0515705 C10.2249426,47.0167089 10.2131936,46.9935968 10.178332,46.9822335 L8.69323373,46.4981599 C8.6583721,46.4867966 8.63525998,46.4985456 8.62389669,46.5334072 L8.24550114,47.6942939 C8.16141282,47.95227 8.1646994,48.184731 8.25536099,48.391684 C8.34602258,48.598637 8.50988047,48.7407466 8.74693959,48.8180169 C8.99097104,48.8975599 9.21232843,48.8810128 9.41101842,48.7683751 C9.6097084,48.6557374 9.75109544,48.4704333 9.83518376,48.2124572 L10.2135793,47.0515705 Z M1.16820705,56.4076336 C1.25792752,55.8204456 1.45464541,55.3219445 1.75836664,54.9121156 C2.06208786,54.5022866 2.44662536,54.2068155 2.91199065,54.0256935 C3.37735594,53.8445714 3.89275102,53.7972099 4.45819133,53.8836073 L6.63295088,54.2159037 C7.18389273,54.3000859 7.65256651,54.49781 8.0389863,54.8090821 C8.42540609,55.1203542 8.70235135,55.5168978 8.86983039,55.9987247 C9.03730942,56.4805516 9.07618812,57.015051 8.98646766,57.602239 C8.89674719,58.189427 8.69975238,58.6897403 8.39547733,59.1031939 C8.09120227,59.5166475 7.70820015,59.8142078 7.24645948,59.9958837 C6.7847188,60.1775595 6.27838513,60.2263057 5.72744329,60.1421235 L3.55268374,59.8098271 C2.98724342,59.7234296 2.50950823,59.5243209 2.11946382,59.212495 C1.72941941,58.9006691 1.45093878,58.5020363 1.28401358,58.0165848 C1.11708838,57.5311333 1.07848659,56.9948216 1.16820705,56.4076336 Z M2.71228634,56.643564 C2.65911865,56.9915273 2.72855892,57.2895994 2.92060923,57.5377893 C3.11265953,57.7859792 3.39716052,57.938871 3.77412073,57.9964693 L6.02499687,58.340396 C6.39470784,58.3968867 6.71007203,58.3356524 6.9710989,58.1566912 C7.23212577,57.9777301 7.38922069,57.7142719 7.44238837,57.3663086 C7.4944484,57.0255946 7.42264202,56.7308701 7.2269671,56.4821264 C7.03129218,56.2333827 6.74860347,56.0807678 6.3788925,56.0242771 L4.12801636,55.6803504 C3.75105615,55.622752 3.43387968,55.6837094 3.17647743,55.8632244 C2.91907518,56.0427394 2.76434636,56.30285 2.71228634,56.643564 Z M0.170791681,64.4241276 C0.170573979,64.3874614 0.183221914,64.3562194 0.208735865,64.3304006 C0.234249816,64.3045819 0.265339427,64.2915639 0.302005631,64.2913462 L7.73787456,64.2471964 C7.77454077,64.2469787 7.80578277,64.2596267 7.8316015,64.2851406 C7.85742024,64.3106546 7.87043826,64.3417442 7.87065596,64.3784104 L7.87993002,65.9403828 C7.88014772,65.977049 7.86749979,66.008291 7.84198584,66.0341098 C7.81647189,66.0599285 7.78538228,66.0729465 7.74871607,66.0731642 L1.79782096,66.1084971 C1.76115476,66.1087148 1.74293078,66.1271565 1.74314848,66.1638227 L1.76398246,69.6727608 C1.76420017,69.709427 1.75155223,69.740669 1.72603828,69.7664878 C1.70052433,69.7923065 1.66943472,69.8053245 1.63276851,69.8055422 L0.334791393,69.8132488 C0.29812519,69.8134665 0.266883189,69.8008186 0.241064455,69.7753047 C0.215245721,69.7497907 0.202227699,69.7187011 0.202009997,69.6820349 L0.170791681,64.4241276 Z M0.33403379,74.7007979 C0.328203628,74.6645975 0.335918005,74.6317871 0.357177154,74.6023657 C0.378436302,74.5729444 0.407165632,74.5553189 0.443366007,74.5494887 L7.7847652,73.3671377 C7.82096557,73.3613075 7.85377596,73.3690219 7.88319733,73.3902811 C7.91261871,73.4115402 7.93024421,73.4402695 7.93607437,73.4764699 L8.18443805,75.0185982 C8.19026821,75.0547985 8.18255383,75.0876089 8.16129468,75.1170303 C8.14003553,75.1464517 8.1113062,75.1640772 8.07510583,75.1699073 L2.19981446,76.1161379 C2.16361409,76.1219681 2.14842921,76.1429831 2.15425937,76.1791834 L2.71220311,79.6435419 C2.71803328,79.6797423 2.7103189,79.7125527 2.68905975,79.7419741 C2.6678006,79.7713954 2.63907127,79.7890209 2.6028709,79.7948511 L1.32138406,80.0012378 C1.28518368,80.007068 1.2523733,79.9993536 1.22295192,79.9780944 C1.19353055,79.9568353 1.17590504,79.928106 1.17007488,79.8919056 L0.33403379,74.7007979 Z M5.75189915,91.1893474 C5.64917615,90.938209 5.6151762,90.6807535 5.64989828,90.4169731 C5.68462035,90.1531927 5.78389674,89.9164917 5.94773041,89.7068629 C6.11156408,89.4972341 6.31565329,89.3424486 6.56000417,89.2425019 C6.81114258,89.1397789 7.0652044,89.1071671 7.32219725,89.1446655 C7.57919009,89.1821638 7.81249742,89.2828284 8.02212623,89.446662 C8.23175503,89.6104957 8.38792859,89.8179786 8.49065159,90.069117 C8.5905983,90.3134679 8.62182199,90.564136 8.58432362,90.8211289 C8.54682525,91.0781217 8.44955445,91.3100409 8.2925083,91.5168934 C8.13546216,91.7237459 7.93137294,91.8785314 7.68023453,91.9812544 C7.43588365,92.0812011 7.18351869,92.1131188 6.92313208,92.0770086 C6.66274547,92.0408984 6.42743256,91.9450157 6.21718629,91.7893577 C6.00694002,91.6336997 5.85184586,91.4336983 5.75189915,91.1893474 Z M11.2285382,105.320366 C10.875792,104.824333 10.6479223,104.33624 10.5449221,103.856074 C10.441922,103.375907 10.4671483,102.930541 10.6206018,102.519962 C10.7740554,102.109383 11.045008,101.765976 11.4334677,101.489729 L11.6037915,101.368605 C11.633673,101.347356 11.6665092,101.339752 11.7023011,101.345794 C11.738093,101.351836 11.7666135,101.369798 11.7878632,101.39968 L12.6739743,102.645733 C12.695224,102.675614 12.7028277,102.70845 12.6967855,102.744242 C12.6907433,102.780034 12.6727817,102.808555 12.6429001,102.829804 L12.5353272,102.906303 C12.3381092,103.046552 12.2364162,103.267343 12.2302453,103.568685 C12.2240744,103.870027 12.3399859,104.18803 12.5779833,104.522703 C12.7649813,104.78566 12.9598768,104.939513 13.1626756,104.984267 C13.3654744,105.02902 13.541575,104.998272 13.6909825,104.892024 C13.8105086,104.807024 13.8810603,104.700612 13.9026396,104.572784 C13.924219,104.444956 13.9157836,104.300231 13.8773331,104.138604 C13.8388827,103.976977 13.7709817,103.732813 13.6736283,103.406107 C13.6660575,103.357499 13.6540046,103.31208 13.6374693,103.269847 C13.6209341,103.227614 13.608018,103.187308 13.5987209,103.148926 C13.4479762,102.671217 13.3438163,102.236876 13.2862379,101.84589 C13.2286595,101.454903 13.2576053,101.065382 13.373076,100.677315 C13.4885468,100.289248 13.7375201,99.9592204 14.1200036,99.6872233 C14.4905344,99.4237261 14.8838047,99.290283 15.2998263,99.28689 C15.715848,99.283497 16.1218052,99.4019871 16.5177101,99.6423638 C16.913615,99.8827406 17.2666856,100.221059 17.5769322,100.657329 C17.9041787,101.117504 18.1148166,101.590856 18.2088523,102.077397 C18.302888,102.563939 18.2718848,103.020162 18.1158417,103.44608 C17.9597986,103.871998 17.6845632,104.2252 17.2901272,104.505697 L17.1646254,104.594946 C17.1347439,104.616196 17.1019077,104.623799 17.0661158,104.617757 C17.0303239,104.611715 17.0018035,104.593753 16.9805537,104.563872 L16.0944427,103.317819 C16.0731929,103.287937 16.0655892,103.255101 16.0716315,103.219309 C16.0776737,103.183517 16.0956353,103.154997 16.1255168,103.133747 L16.1882677,103.089123 C16.3974383,102.940374 16.5168276,102.715997 16.5464392,102.415982 C16.5760508,102.115968 16.4803593,101.810582 16.2593616,101.499814 C16.0936134,101.266738 15.916182,101.118463 15.7270622,101.054983 C15.5379423,100.991504 15.3567287,101.021388 15.1834159,101.144637 C15.0519373,101.238136 14.9726206,101.35753 14.9454635,101.502822 C14.9183065,101.648115 14.9300627,101.835471 14.9807326,102.064897 C15.0314025,102.294322 15.1265965,102.633806 15.2663177,103.08336 C15.4203832,103.6037 15.5265017,104.018651 15.5846765,104.328226 C15.6428513,104.637801 15.6242305,104.981737 15.5288136,105.360042 C15.4333967,105.738348 15.188474,106.067744 14.7940379,106.348241 C14.4055782,106.624488 14.000787,106.763875 13.5796523,106.766404 C13.1585175,106.768934 12.7453223,106.646593 12.3400543,106.399377 C11.9347863,106.15216 11.5642846,105.792494 11.2285382,105.320366 Z M17.8026714,113.644677 C17.3911694,113.226529 17.1108395,112.779622 16.9616732,112.30394 C16.812507,111.828259 16.8007308,111.356279 16.9263444,110.887984 C17.051958,110.41969 17.3107676,109.992657 17.7027808,109.606874 L19.3962696,107.940299 C19.783056,107.55966 20.2102594,107.311582 20.6778925,107.196058 C21.1455256,107.080534 21.6159504,107.101155 22.0891809,107.257922 C22.5624115,107.414689 23.0047711,107.702142 23.4162732,108.12029 C23.8277752,108.538437 24.1120252,108.981487 24.2690317,109.449452 C24.4260382,109.917418 24.4508813,110.376539 24.3435617,110.82683 C24.236242,111.277121 23.9996462,111.682293 23.6337672,112.042357 C23.607633,112.068076 23.5777244,112.079504 23.5440407,112.076642 C23.5103569,112.073779 23.4806561,112.059281 23.4549372,112.033147 L22.2887565,110.989275 C22.2270312,110.926553 22.2249162,110.866902 22.2824115,110.810321 C22.5280731,110.568563 22.6520651,110.3025 22.654391,110.012122 C22.6567169,109.721745 22.5395748,109.456343 22.3029611,109.215908 C22.0663474,108.975473 21.8015492,108.855381 21.5085585,108.855627 C21.2155677,108.855873 20.9488589,108.974301 20.7084241,109.210914 L18.9286929,110.962361 C18.6882581,111.198975 18.5668796,111.462466 18.5645536,111.752844 C18.5622277,112.043221 18.6793699,112.308623 18.9159835,112.549058 C19.1525972,112.789493 19.4160887,112.910871 19.706466,112.913197 C19.9968434,112.915523 20.2622454,112.798381 20.5026802,112.561767 C20.5601755,112.505186 20.6197849,112.508256 20.6815102,112.570978 L21.7222473,113.7383 C21.7479662,113.764434 21.7619867,113.794363 21.7643094,113.828088 C21.7666321,113.861814 21.7573399,113.888963 21.7364325,113.909539 C21.3653266,114.274747 20.9524969,114.508679 20.4979309,114.611344 C20.0433649,114.714009 19.5833936,114.6831 19.1180033,114.518617 C18.652613,114.354135 18.2141735,114.062824 17.8026714,113.644677 Z M26.7600531,121.559029 C26.7009254,121.51565 26.679057,121.458678 26.6944472,121.388112 L27.3787121,118.261123 C27.3842383,118.228796 27.3751759,118.203957 27.3515249,118.186605 L26.7661639,117.757154 C26.7366001,117.735464 26.7109737,117.739401 26.6892842,117.768965 L24.9844921,120.092671 C24.9628025,120.122234 24.9340195,120.139772 24.8981421,120.145284 C24.8622647,120.150796 24.8295446,120.142707 24.7999808,120.121018 L23.5405678,119.197047 C23.5110039,119.175357 23.4934663,119.146574 23.4879543,119.110697 C23.4824423,119.074819 23.490531,119.042099 23.5122206,119.012535 L27.9108444,113.01702 C27.9325339,112.987456 27.961317,112.969918 27.9971944,112.964406 C28.0330718,112.958894 28.0657919,112.966983 28.0953557,112.988673 L30.7294801,114.921204 C31.1197227,115.207506 31.404097,115.538923 31.5826116,115.915463 C31.7611263,116.292004 31.8243198,116.686255 31.7721941,117.09823 C31.7200684,117.510205 31.5551947,117.905395 31.2775681,118.283812 C30.9869278,118.679967 30.6377734,118.951328 30.2300942,119.097902 C29.8224151,119.244477 29.3964382,119.254835 28.9521509,119.128979 C28.9139112,119.119115 28.8898597,119.133303 28.8799957,119.171543 L28.2613367,122.46945 C28.2558105,122.501776 28.2487097,122.523852 28.2400338,122.535678 C28.2053305,122.58298 28.1554594,122.582772 28.0904189,122.535055 L26.7600531,121.559029 Z M28.5815722,115.282673 C28.5520084,115.260984 28.5263821,115.264921 28.5046925,115.294484 L27.5807212,116.553897 C27.5590317,116.583461 27.5629687,116.609088 27.5925326,116.630777 L28.5770033,117.353036 C28.7957756,117.513539 29.0176189,117.58307 29.2425398,117.56163 C29.4674607,117.540191 29.6536629,117.428955 29.801152,117.227921 C29.9529791,117.020974 30.0064431,116.805534 29.9615456,116.581594 C29.9166482,116.357654 29.7848153,116.165435 29.566043,116.004932 L28.5815722,115.282673 Z M34.6381942,126.804464 C34.1087886,126.535077 33.6971575,126.191914 33.4032887,125.774964 C33.1094198,125.358013 32.949488,124.900199 32.9234883,124.401507 C32.8974887,123.902814 33.0141918,123.398577 33.2736013,122.888779 L34.271325,120.928027 C34.524083,120.431301 34.8588453,120.048307 35.275622,119.779034 C35.6923988,119.509762 36.1558019,119.371187 36.6658453,119.363305 C37.1758887,119.355424 37.6956054,119.486175 38.225011,119.755561 C38.7544166,120.024948 39.1676816,120.368943 39.4648184,120.787556 C39.7619552,121.206169 39.9243524,121.663181 39.9520149,122.158606 C39.9796775,122.65403 39.8671315,123.150098 39.6143735,123.646824 L38.6166498,125.607576 C38.3572403,126.117374 38.0183208,126.508537 37.5998812,126.781078 C37.1814416,127.053618 36.7155731,127.192996 36.2022618,127.199214 C35.6889504,127.205433 35.1675998,127.073851 34.6381942,126.804464 Z M35.346578,125.41233 C35.6602999,125.571967 35.9651097,125.599534 36.2610165,125.495032 C36.5569234,125.39053 36.7913431,125.168349 36.9642827,124.828484 L37.9969268,122.799106 C38.1665407,122.465776 38.2073237,122.147122 38.119277,121.843132 C38.0312303,121.539142 37.830349,121.307332 37.5166272,121.147695 C37.2094412,120.991384 36.9070679,120.967114 36.6094981,121.074884 C36.3119284,121.182654 36.0783401,121.403201 35.9087262,121.73653 L34.8760821,123.765908 C34.7031425,124.105773 34.6615281,124.426062 34.7512377,124.726784 C34.8409473,125.027506 35.0393921,125.256019 35.346578,125.41233 Z M41.9436033,130.266407 C41.9086937,130.255192 41.882946,130.233441 41.8663596,130.201154 C41.8497732,130.168867 41.8470875,130.135269 41.8583023,130.100359 L44.132659,123.020713 C44.1438738,122.985803 44.1656245,122.960055 44.1979116,122.943469 C44.2301988,122.926883 44.2637967,122.924197 44.2987064,122.935412 L45.7858511,123.413161 C45.8207608,123.424376 45.8465084,123.446127 45.8630948,123.478414 C45.8796812,123.510701 45.8823669,123.544299 45.8711521,123.579209 L44.0509939,129.245021 C44.0397791,129.27993 44.0516263,129.302992 44.086536,129.314207 L47.4273752,130.387461 C47.4622849,130.398676 47.4880325,130.420427 47.5046189,130.452714 C47.5212053,130.485001 47.523891,130.518599 47.5126762,130.553508 L47.1156731,131.789305 C47.1044583,131.824214 47.0827076,131.849962 47.0504205,131.866548 C47.0181333,131.883135 46.9845354,131.885821 46.9496257,131.874606 L41.9436033,130.266407 Z M51.7681484,133.312597 C51.7319209,133.306937 51.7031088,133.289447 51.6817111,133.260127 C51.6603134,133.230806 51.6524444,133.198032 51.6581038,133.161805 L52.8058211,125.814911 C52.8114805,125.778684 52.8289703,125.749872 52.8582911,125.728474 C52.8876119,125.707076 52.9203855,125.699207 52.956613,125.704867 L54.4998953,125.945955 C54.5361228,125.951615 54.5649349,125.969105 54.5863326,125.998425 C54.6077302,126.027746 54.6155992,126.06052 54.6099399,126.096747 L53.6914265,131.976436 C53.6857671,132.012663 53.7010509,132.033606 53.7372784,132.039266 L57.2042295,132.580866 C57.240457,132.586525 57.2692691,132.604015 57.2906667,132.633336 C57.3120644,132.662657 57.3199334,132.69543 57.314274,132.731658 L57.1139329,134.014104 C57.1082735,134.050331 57.0907836,134.079143 57.0614629,134.100541 C57.0321421,134.121939 56.9993684,134.129808 56.963141,134.124148 L51.7681484,133.312597 Z M68.271,133.405 C67.9996653,133.405 67.7485012,133.339001 67.5175,133.207 C67.2864988,133.074999 67.1050007,132.893501 66.973,132.6625 C66.8409993,132.431499 66.775,132.184001 66.775,131.92 C66.775,131.648665 66.8409993,131.401168 66.973,131.1775 C67.1050007,130.953832 67.2864988,130.776001 67.5175,130.644 C67.7485012,130.511999 67.9996653,130.446 68.271,130.446 C68.5350013,130.446 68.7788322,130.511999 69.0025,130.644 C69.2261678,130.776001 69.4039993,130.953832 69.536,131.1775 C69.6680007,131.401168 69.734,131.648665 69.734,131.92 C69.734,132.184001 69.6680007,132.429666 69.536,132.657 C69.4039993,132.884334 69.2261678,133.065833 69.0025,133.2015 C68.7788322,133.337167 68.5350013,133.405 68.271,133.405 Z" id="SCROLLSCROLLSCROLLSCROLLSCROLL"></path>
                </g>
            </g>
        </g>
    </g>
</svg>